<mxfile host="app.diagrams.net" agent="Mozilla/5.0 (Windows NT 10.0; Win64; x64) AppleWebKit/537.36 (KHTML, like Gecko) Chrome/129.0.0.0 Safari/537.36" version="24.8.0">
  <diagram id="nIJJ5MpG1EACf50Es3h2" name="페이지-1">
    <mxGraphModel dx="2220" dy="1380" grid="1" gridSize="10" guides="1" tooltips="1" connect="1" arrows="1" fold="1" page="1" pageScale="1" pageWidth="1100" pageHeight="1700" background="#ffffff" math="0" shadow="0">
      <root>
        <mxCell id="0" />
        <mxCell id="1" parent="0" />
        <mxCell id="LmYOKkJwpbg0egYobLyk-2" value="" style="ellipse;whiteSpace=wrap;html=1;aspect=fixed;fillColor=#000000;" parent="1" vertex="1">
          <mxGeometry x="341" y="170" width="40" height="40" as="geometry" />
        </mxCell>
        <mxCell id="LmYOKkJwpbg0egYobLyk-3" value="&lt;font style=&quot;font-size: 14px;&quot;&gt;시작&lt;/font&gt;" style="rounded=1;whiteSpace=wrap;html=1;absoluteArcSize=1;arcSize=14;strokeWidth=2;" parent="1" vertex="1">
          <mxGeometry x="331" y="230" width="60" height="30" as="geometry" />
        </mxCell>
        <mxCell id="LmYOKkJwpbg0egYobLyk-4" value="" style="endArrow=classic;html=1;rounded=0;" parent="1" source="LmYOKkJwpbg0egYobLyk-2" target="LmYOKkJwpbg0egYobLyk-3" edge="1">
          <mxGeometry width="50" height="50" relative="1" as="geometry">
            <mxPoint x="316" y="440" as="sourcePoint" />
            <mxPoint x="366" y="390" as="targetPoint" />
          </mxGeometry>
        </mxCell>
        <mxCell id="LmYOKkJwpbg0egYobLyk-5" value="&lt;font style=&quot;font-size: 22px;&quot;&gt;activity_diagram_Compass&lt;/font&gt;" style="text;html=1;align=center;verticalAlign=middle;whiteSpace=wrap;rounded=0;" parent="1" vertex="1">
          <mxGeometry width="310" height="90" as="geometry" />
        </mxCell>
        <mxCell id="LmYOKkJwpbg0egYobLyk-7" value="&lt;font style=&quot;font-size: 14px;&quot;&gt;시작&amp;nbsp; 화면&lt;/font&gt;" style="rounded=1;whiteSpace=wrap;html=1;absoluteArcSize=1;arcSize=14;strokeWidth=2;" parent="1" vertex="1">
          <mxGeometry x="310" y="290" width="102" height="30" as="geometry" />
        </mxCell>
        <mxCell id="LmYOKkJwpbg0egYobLyk-8" value="" style="endArrow=classic;html=1;rounded=0;" parent="1" source="LmYOKkJwpbg0egYobLyk-3" target="LmYOKkJwpbg0egYobLyk-7" edge="1">
          <mxGeometry width="50" height="50" relative="1" as="geometry">
            <mxPoint x="316" y="560" as="sourcePoint" />
            <mxPoint x="366" y="510" as="targetPoint" />
          </mxGeometry>
        </mxCell>
        <mxCell id="LmYOKkJwpbg0egYobLyk-43" value="&lt;font style=&quot;font-size: 14px;&quot;&gt;사용자&lt;/font&gt;" style="rounded=0;whiteSpace=wrap;html=1;fillColor=#f5f5f5;fontColor=#333333;strokeColor=#666666;" parent="1" vertex="1">
          <mxGeometry x="318.5" y="130" width="85" height="30" as="geometry" />
        </mxCell>
        <mxCell id="LmYOKkJwpbg0egYobLyk-48" value="" style="endArrow=classic;html=1;rounded=0;" parent="1" source="LmYOKkJwpbg0egYobLyk-7" target="LmYOKkJwpbg0egYobLyk-49" edge="1">
          <mxGeometry width="50" height="50" relative="1" as="geometry">
            <mxPoint x="490" y="480" as="sourcePoint" />
            <mxPoint x="590" y="520" as="targetPoint" />
          </mxGeometry>
        </mxCell>
        <mxCell id="LmYOKkJwpbg0egYobLyk-49" value="" style="strokeWidth=2;html=1;shape=mxgraph.flowchart.decision;whiteSpace=wrap;" parent="1" vertex="1">
          <mxGeometry x="341.5" y="360" width="40" height="40" as="geometry" />
        </mxCell>
        <mxCell id="LmYOKkJwpbg0egYobLyk-53" value="" style="endArrow=classic;html=1;rounded=0;" parent="1" target="LmYOKkJwpbg0egYobLyk-80" edge="1">
          <mxGeometry relative="1" as="geometry">
            <mxPoint x="382" y="380" as="sourcePoint" />
            <mxPoint x="520" y="380" as="targetPoint" />
          </mxGeometry>
        </mxCell>
        <mxCell id="LmYOKkJwpbg0egYobLyk-54" value="자동 로그인 비활성화" style="edgeLabel;resizable=0;html=1;;align=center;verticalAlign=middle;" parent="LmYOKkJwpbg0egYobLyk-53" connectable="0" vertex="1">
          <mxGeometry relative="1" as="geometry" />
        </mxCell>
        <mxCell id="LmYOKkJwpbg0egYobLyk-56" value="" style="endArrow=classic;html=1;rounded=0;" parent="1" target="LmYOKkJwpbg0egYobLyk-79" edge="1">
          <mxGeometry relative="1" as="geometry">
            <mxPoint x="341.5" y="380" as="sourcePoint" />
            <mxPoint x="208" y="460" as="targetPoint" />
            <Array as="points">
              <mxPoint x="328" y="380" />
            </Array>
          </mxGeometry>
        </mxCell>
        <mxCell id="LmYOKkJwpbg0egYobLyk-57" value="자동 로그인 활성화" style="edgeLabel;resizable=0;html=1;;align=center;verticalAlign=middle;" parent="LmYOKkJwpbg0egYobLyk-56" connectable="0" vertex="1">
          <mxGeometry relative="1" as="geometry" />
        </mxCell>
        <mxCell id="LmYOKkJwpbg0egYobLyk-124" style="edgeStyle=orthogonalEdgeStyle;rounded=0;orthogonalLoop=1;jettySize=auto;html=1;exitX=0.5;exitY=1;exitDx=0;exitDy=0;" parent="1" source="LmYOKkJwpbg0egYobLyk-79" target="LmYOKkJwpbg0egYobLyk-122" edge="1">
          <mxGeometry relative="1" as="geometry" />
        </mxCell>
        <mxCell id="LmYOKkJwpbg0egYobLyk-79" value="&lt;font style=&quot;font-size: 14px;&quot;&gt;지도 마커 화면&lt;/font&gt;" style="rounded=1;whiteSpace=wrap;html=1;absoluteArcSize=1;arcSize=14;strokeWidth=2;" parent="1" vertex="1">
          <mxGeometry x="270" y="465" width="116" height="30" as="geometry" />
        </mxCell>
        <mxCell id="LmYOKkJwpbg0egYobLyk-85" style="edgeStyle=orthogonalEdgeStyle;rounded=0;orthogonalLoop=1;jettySize=auto;html=1;exitX=0.5;exitY=1;exitDx=0;exitDy=0;" parent="1" source="LmYOKkJwpbg0egYobLyk-80" target="LmYOKkJwpbg0egYobLyk-84" edge="1">
          <mxGeometry relative="1" as="geometry" />
        </mxCell>
        <mxCell id="LmYOKkJwpbg0egYobLyk-80" value="&lt;font style=&quot;font-size: 14px;&quot;&gt;로그인 화면&lt;/font&gt;" style="rounded=1;whiteSpace=wrap;html=1;absoluteArcSize=1;arcSize=14;strokeWidth=2;" parent="1" vertex="1">
          <mxGeometry x="525" y="360" width="100" height="30" as="geometry" />
        </mxCell>
        <mxCell id="LmYOKkJwpbg0egYobLyk-81" value="" style="strokeWidth=2;html=1;shape=mxgraph.flowchart.decision;whiteSpace=wrap;" parent="1" vertex="1">
          <mxGeometry x="555" y="460" width="40" height="40" as="geometry" />
        </mxCell>
        <mxCell id="LmYOKkJwpbg0egYobLyk-86" style="edgeStyle=orthogonalEdgeStyle;rounded=0;orthogonalLoop=1;jettySize=auto;html=1;exitX=0.5;exitY=1;exitDx=0;exitDy=0;" parent="1" source="LmYOKkJwpbg0egYobLyk-84" target="LmYOKkJwpbg0egYobLyk-81" edge="1">
          <mxGeometry relative="1" as="geometry" />
        </mxCell>
        <mxCell id="LmYOKkJwpbg0egYobLyk-84" value="&lt;font style=&quot;font-size: 14px;&quot;&gt;회원 정보 입력&lt;/font&gt;" style="rounded=1;whiteSpace=wrap;html=1;absoluteArcSize=1;arcSize=14;strokeWidth=2;" parent="1" vertex="1">
          <mxGeometry x="520" y="410" width="110" height="30" as="geometry" />
        </mxCell>
        <mxCell id="LmYOKkJwpbg0egYobLyk-87" value="" style="endArrow=classic;html=1;rounded=0;" parent="1" source="LmYOKkJwpbg0egYobLyk-81" target="LmYOKkJwpbg0egYobLyk-79" edge="1">
          <mxGeometry relative="1" as="geometry">
            <mxPoint x="400" y="490" as="sourcePoint" />
            <mxPoint x="500" y="490" as="targetPoint" />
          </mxGeometry>
        </mxCell>
        <mxCell id="LmYOKkJwpbg0egYobLyk-88" value="DB에 등록된 회원 정보" style="edgeLabel;resizable=0;html=1;;align=center;verticalAlign=middle;" parent="LmYOKkJwpbg0egYobLyk-87" connectable="0" vertex="1">
          <mxGeometry relative="1" as="geometry" />
        </mxCell>
        <mxCell id="LmYOKkJwpbg0egYobLyk-89" value="" style="endArrow=classic;html=1;rounded=0;" parent="1" source="LmYOKkJwpbg0egYobLyk-81" target="LmYOKkJwpbg0egYobLyk-91" edge="1">
          <mxGeometry relative="1" as="geometry">
            <mxPoint x="550" y="490" as="sourcePoint" />
            <mxPoint x="770" y="500" as="targetPoint" />
          </mxGeometry>
        </mxCell>
        <mxCell id="LmYOKkJwpbg0egYobLyk-90" value="등록되지 않은 회원 정보" style="edgeLabel;resizable=0;html=1;;align=center;verticalAlign=middle;" parent="LmYOKkJwpbg0egYobLyk-89" connectable="0" vertex="1">
          <mxGeometry relative="1" as="geometry" />
        </mxCell>
        <mxCell id="LmYOKkJwpbg0egYobLyk-100" style="edgeStyle=orthogonalEdgeStyle;rounded=0;orthogonalLoop=1;jettySize=auto;html=1;exitX=0.5;exitY=0;exitDx=0;exitDy=0;" parent="1" source="LmYOKkJwpbg0egYobLyk-91" target="LmYOKkJwpbg0egYobLyk-92" edge="1">
          <mxGeometry relative="1" as="geometry" />
        </mxCell>
        <mxCell id="LmYOKkJwpbg0egYobLyk-91" value="&lt;font style=&quot;font-size: 14px;&quot;&gt;회원 가입 화면&lt;/font&gt;" style="rounded=1;whiteSpace=wrap;html=1;absoluteArcSize=1;arcSize=14;strokeWidth=2;" parent="1" vertex="1">
          <mxGeometry x="755" y="465" width="110" height="30" as="geometry" />
        </mxCell>
        <mxCell id="LmYOKkJwpbg0egYobLyk-101" style="edgeStyle=orthogonalEdgeStyle;rounded=0;orthogonalLoop=1;jettySize=auto;html=1;exitX=0.5;exitY=0;exitDx=0;exitDy=0;" parent="1" source="LmYOKkJwpbg0egYobLyk-92" target="LmYOKkJwpbg0egYobLyk-94" edge="1">
          <mxGeometry relative="1" as="geometry" />
        </mxCell>
        <mxCell id="LmYOKkJwpbg0egYobLyk-92" value="&lt;font style=&quot;font-size: 14px;&quot;&gt;회원 정보 입력&lt;/font&gt;" style="rounded=1;whiteSpace=wrap;html=1;absoluteArcSize=1;arcSize=14;strokeWidth=2;" parent="1" vertex="1">
          <mxGeometry x="755" y="410" width="110" height="30" as="geometry" />
        </mxCell>
        <mxCell id="LmYOKkJwpbg0egYobLyk-102" style="edgeStyle=orthogonalEdgeStyle;rounded=0;orthogonalLoop=1;jettySize=auto;html=1;exitX=0;exitY=0.5;exitDx=0;exitDy=0;" parent="1" source="LmYOKkJwpbg0egYobLyk-94" target="LmYOKkJwpbg0egYobLyk-80" edge="1">
          <mxGeometry relative="1" as="geometry" />
        </mxCell>
        <mxCell id="LmYOKkJwpbg0egYobLyk-94" value="&lt;span style=&quot;font-size: 14px;&quot;&gt;입력 정보 DB에 저장&lt;/span&gt;" style="rounded=1;whiteSpace=wrap;html=1;absoluteArcSize=1;arcSize=14;strokeWidth=2;" parent="1" vertex="1">
          <mxGeometry x="740" y="360" width="140" height="30" as="geometry" />
        </mxCell>
        <mxCell id="LmYOKkJwpbg0egYobLyk-162" style="edgeStyle=orthogonalEdgeStyle;rounded=0;orthogonalLoop=1;jettySize=auto;html=1;exitX=0.5;exitY=1;exitDx=0;exitDy=0;entryX=0.5;entryY=0;entryDx=0;entryDy=0;" parent="1" source="LmYOKkJwpbg0egYobLyk-117" target="LmYOKkJwpbg0egYobLyk-148" edge="1">
          <mxGeometry relative="1" as="geometry" />
        </mxCell>
        <mxCell id="LmYOKkJwpbg0egYobLyk-117" value="&lt;span style=&quot;font-size: 14px;&quot;&gt;DB에서 정보 불러오기&lt;/span&gt;" style="rounded=1;whiteSpace=wrap;html=1;absoluteArcSize=1;arcSize=14;strokeWidth=2;" parent="1" vertex="1">
          <mxGeometry x="60" y="1005" width="160" height="30" as="geometry" />
        </mxCell>
        <mxCell id="LmYOKkJwpbg0egYobLyk-128" style="edgeStyle=orthogonalEdgeStyle;rounded=0;orthogonalLoop=1;jettySize=auto;html=1;exitX=0.5;exitY=1;exitDx=0;exitDy=0;exitPerimeter=0;" parent="1" source="LmYOKkJwpbg0egYobLyk-122" target="LmYOKkJwpbg0egYobLyk-127" edge="1">
          <mxGeometry relative="1" as="geometry" />
        </mxCell>
        <mxCell id="LmYOKkJwpbg0egYobLyk-122" value="" style="strokeWidth=2;html=1;shape=mxgraph.flowchart.decision;whiteSpace=wrap;" parent="1" vertex="1">
          <mxGeometry x="308" y="520" width="40" height="40" as="geometry" />
        </mxCell>
        <mxCell id="LmYOKkJwpbg0egYobLyk-125" value="" style="endArrow=classic;html=1;rounded=0;" parent="1" source="LmYOKkJwpbg0egYobLyk-122" target="LmYOKkJwpbg0egYobLyk-157" edge="1">
          <mxGeometry relative="1" as="geometry">
            <mxPoint x="250" y="550" as="sourcePoint" />
            <mxPoint x="490" y="540" as="targetPoint" />
          </mxGeometry>
        </mxCell>
        <mxCell id="LmYOKkJwpbg0egYobLyk-126" value="다른 화면으로" style="edgeLabel;resizable=0;html=1;;align=center;verticalAlign=middle;" parent="LmYOKkJwpbg0egYobLyk-125" connectable="0" vertex="1">
          <mxGeometry relative="1" as="geometry" />
        </mxCell>
        <mxCell id="LmYOKkJwpbg0egYobLyk-165" style="edgeStyle=orthogonalEdgeStyle;rounded=0;orthogonalLoop=1;jettySize=auto;html=1;exitX=0.5;exitY=1;exitDx=0;exitDy=0;exitPerimeter=0;" parent="1" source="LmYOKkJwpbg0egYobLyk-127" target="LmYOKkJwpbg0egYobLyk-164" edge="1">
          <mxGeometry relative="1" as="geometry" />
        </mxCell>
        <mxCell id="LmYOKkJwpbg0egYobLyk-127" value="" style="strokeWidth=2;html=1;shape=mxgraph.flowchart.decision;whiteSpace=wrap;" parent="1" vertex="1">
          <mxGeometry x="308" y="635" width="40" height="40" as="geometry" />
        </mxCell>
        <mxCell id="LmYOKkJwpbg0egYobLyk-129" value="" style="endArrow=classic;html=1;rounded=0;" parent="1" source="LmYOKkJwpbg0egYobLyk-127" target="LmYOKkJwpbg0egYobLyk-139" edge="1">
          <mxGeometry relative="1" as="geometry">
            <mxPoint x="250" y="550" as="sourcePoint" />
            <mxPoint x="190" y="600" as="targetPoint" />
          </mxGeometry>
        </mxCell>
        <mxCell id="LmYOKkJwpbg0egYobLyk-130" value="마커 생성" style="edgeLabel;resizable=0;html=1;;align=center;verticalAlign=middle;" parent="LmYOKkJwpbg0egYobLyk-129" connectable="0" vertex="1">
          <mxGeometry relative="1" as="geometry" />
        </mxCell>
        <mxCell id="LmYOKkJwpbg0egYobLyk-131" value="" style="strokeWidth=2;html=1;shape=mxgraph.flowchart.decision;whiteSpace=wrap;" parent="1" vertex="1">
          <mxGeometry x="308" y="950" width="40" height="40" as="geometry" />
        </mxCell>
        <mxCell id="LmYOKkJwpbg0egYobLyk-133" value="" style="endArrow=classic;html=1;rounded=0;" parent="1" source="LmYOKkJwpbg0egYobLyk-131" target="LmYOKkJwpbg0egYobLyk-144" edge="1">
          <mxGeometry relative="1" as="geometry">
            <mxPoint x="250" y="760" as="sourcePoint" />
            <mxPoint x="150" y="870" as="targetPoint" />
          </mxGeometry>
        </mxCell>
        <mxCell id="LmYOKkJwpbg0egYobLyk-134" value="마커 리스트" style="edgeLabel;resizable=0;html=1;;align=center;verticalAlign=middle;" parent="LmYOKkJwpbg0egYobLyk-133" connectable="0" vertex="1">
          <mxGeometry relative="1" as="geometry">
            <mxPoint as="offset" />
          </mxGeometry>
        </mxCell>
        <mxCell id="LmYOKkJwpbg0egYobLyk-138" value="&lt;font style=&quot;font-size: 14px;&quot;&gt;앱 종료&lt;/font&gt;" style="rounded=1;whiteSpace=wrap;html=1;absoluteArcSize=1;arcSize=14;strokeWidth=2;" parent="1" vertex="1">
          <mxGeometry x="528" y="1250" width="70" height="30" as="geometry" />
        </mxCell>
        <mxCell id="LmYOKkJwpbg0egYobLyk-142" style="edgeStyle=orthogonalEdgeStyle;rounded=0;orthogonalLoop=1;jettySize=auto;html=1;exitX=0.5;exitY=0;exitDx=0;exitDy=0;" parent="1" source="LmYOKkJwpbg0egYobLyk-139" target="LmYOKkJwpbg0egYobLyk-140" edge="1">
          <mxGeometry relative="1" as="geometry" />
        </mxCell>
        <mxCell id="LmYOKkJwpbg0egYobLyk-139" value="&lt;span style=&quot;font-size: 14px;&quot;&gt;마커 생성 창&lt;/span&gt;" style="rounded=1;whiteSpace=wrap;html=1;absoluteArcSize=1;arcSize=14;strokeWidth=2;" parent="1" vertex="1">
          <mxGeometry x="89" y="640" width="102" height="30" as="geometry" />
        </mxCell>
        <mxCell id="LmYOKkJwpbg0egYobLyk-143" style="edgeStyle=orthogonalEdgeStyle;rounded=0;orthogonalLoop=1;jettySize=auto;html=1;exitX=0.5;exitY=0;exitDx=0;exitDy=0;" parent="1" source="LmYOKkJwpbg0egYobLyk-140" target="LmYOKkJwpbg0egYobLyk-141" edge="1">
          <mxGeometry relative="1" as="geometry" />
        </mxCell>
        <mxCell id="LmYOKkJwpbg0egYobLyk-140" value="&lt;font style=&quot;font-size: 14px;&quot;&gt;마커 정보 입력&lt;/font&gt;" style="rounded=1;whiteSpace=wrap;html=1;absoluteArcSize=1;arcSize=14;strokeWidth=2;" parent="1" vertex="1">
          <mxGeometry x="85" y="595" width="110" height="30" as="geometry" />
        </mxCell>
        <mxCell id="LmYOKkJwpbg0egYobLyk-159" style="edgeStyle=orthogonalEdgeStyle;rounded=0;orthogonalLoop=1;jettySize=auto;html=1;exitX=0.5;exitY=0;exitDx=0;exitDy=0;entryX=0.5;entryY=1;entryDx=0;entryDy=0;" parent="1" source="LmYOKkJwpbg0egYobLyk-141" target="LmYOKkJwpbg0egYobLyk-158" edge="1">
          <mxGeometry relative="1" as="geometry" />
        </mxCell>
        <mxCell id="LmYOKkJwpbg0egYobLyk-141" value="&lt;span style=&quot;font-size: 14px;&quot;&gt;입력 정보 DB에 저장&lt;/span&gt;" style="rounded=1;whiteSpace=wrap;html=1;absoluteArcSize=1;arcSize=14;strokeWidth=2;" parent="1" vertex="1">
          <mxGeometry x="70" y="550" width="140" height="30" as="geometry" />
        </mxCell>
        <mxCell id="LmYOKkJwpbg0egYobLyk-161" style="edgeStyle=orthogonalEdgeStyle;rounded=0;orthogonalLoop=1;jettySize=auto;html=1;exitX=0.5;exitY=1;exitDx=0;exitDy=0;entryX=0.5;entryY=0;entryDx=0;entryDy=0;" parent="1" source="LmYOKkJwpbg0egYobLyk-144" target="LmYOKkJwpbg0egYobLyk-117" edge="1">
          <mxGeometry relative="1" as="geometry" />
        </mxCell>
        <mxCell id="LmYOKkJwpbg0egYobLyk-144" value="&lt;span style=&quot;font-size: 14px;&quot;&gt;마커 리스트 창&lt;/span&gt;" style="rounded=1;whiteSpace=wrap;html=1;absoluteArcSize=1;arcSize=14;strokeWidth=2;" parent="1" vertex="1">
          <mxGeometry x="80" y="955" width="120" height="30" as="geometry" />
        </mxCell>
        <mxCell id="LmYOKkJwpbg0egYobLyk-148" value="&lt;span style=&quot;font-size: 14px;&quot;&gt;마커 정보 보여주기,&amp;nbsp;&lt;/span&gt;&lt;div&gt;&lt;span style=&quot;font-size: 14px;&quot;&gt;지도의 시점을 마커 위치로&amp;nbsp; 이동&lt;/span&gt;&lt;/div&gt;" style="rounded=1;whiteSpace=wrap;html=1;absoluteArcSize=1;arcSize=14;strokeWidth=2;" parent="1" vertex="1">
          <mxGeometry x="30" y="1055" width="220" height="45" as="geometry" />
        </mxCell>
        <mxCell id="LmYOKkJwpbg0egYobLyk-179" style="edgeStyle=orthogonalEdgeStyle;rounded=0;orthogonalLoop=1;jettySize=auto;html=1;exitX=0.5;exitY=1;exitDx=0;exitDy=0;" parent="1" source="LmYOKkJwpbg0egYobLyk-157" target="LmYOKkJwpbg0egYobLyk-178" edge="1">
          <mxGeometry relative="1" as="geometry" />
        </mxCell>
        <mxCell id="LmYOKkJwpbg0egYobLyk-157" value="&lt;span style=&quot;font-size: 14px;&quot;&gt;하단 네비게이션 바&lt;/span&gt;" style="rounded=1;whiteSpace=wrap;html=1;absoluteArcSize=1;arcSize=14;strokeWidth=2;" parent="1" vertex="1">
          <mxGeometry x="490" y="525" width="146" height="30" as="geometry" />
        </mxCell>
        <mxCell id="LmYOKkJwpbg0egYobLyk-158" value="&lt;span style=&quot;font-size: 14px;&quot;&gt;생성된 마커 지도에 표시&lt;/span&gt;" style="rounded=1;whiteSpace=wrap;html=1;absoluteArcSize=1;arcSize=14;strokeWidth=2;" parent="1" vertex="1">
          <mxGeometry x="55" y="500" width="170" height="30" as="geometry" />
        </mxCell>
        <mxCell id="LmYOKkJwpbg0egYobLyk-166" style="edgeStyle=orthogonalEdgeStyle;rounded=0;orthogonalLoop=1;jettySize=auto;html=1;exitX=0.5;exitY=1;exitDx=0;exitDy=0;exitPerimeter=0;" parent="1" source="LmYOKkJwpbg0egYobLyk-164" target="LmYOKkJwpbg0egYobLyk-131" edge="1">
          <mxGeometry relative="1" as="geometry" />
        </mxCell>
        <mxCell id="LmYOKkJwpbg0egYobLyk-164" value="" style="strokeWidth=2;html=1;shape=mxgraph.flowchart.decision;whiteSpace=wrap;" parent="1" vertex="1">
          <mxGeometry x="308" y="875" width="40" height="40" as="geometry" />
        </mxCell>
        <mxCell id="LmYOKkJwpbg0egYobLyk-167" value="" style="endArrow=classic;html=1;rounded=0;" parent="1" source="LmYOKkJwpbg0egYobLyk-164" target="LmYOKkJwpbg0egYobLyk-169" edge="1">
          <mxGeometry relative="1" as="geometry">
            <mxPoint x="220" y="860" as="sourcePoint" />
            <mxPoint x="150" y="810" as="targetPoint" />
          </mxGeometry>
        </mxCell>
        <mxCell id="LmYOKkJwpbg0egYobLyk-168" value="마커 정보 확인, 편집" style="edgeLabel;resizable=0;html=1;;align=center;verticalAlign=middle;" parent="LmYOKkJwpbg0egYobLyk-167" connectable="0" vertex="1">
          <mxGeometry relative="1" as="geometry">
            <mxPoint as="offset" />
          </mxGeometry>
        </mxCell>
        <mxCell id="LmYOKkJwpbg0egYobLyk-174" style="edgeStyle=orthogonalEdgeStyle;rounded=0;orthogonalLoop=1;jettySize=auto;html=1;exitX=0.5;exitY=0;exitDx=0;exitDy=0;" parent="1" source="LmYOKkJwpbg0egYobLyk-169" target="LmYOKkJwpbg0egYobLyk-170" edge="1">
          <mxGeometry relative="1" as="geometry" />
        </mxCell>
        <mxCell id="LmYOKkJwpbg0egYobLyk-169" value="&lt;span style=&quot;font-size: 14px;&quot;&gt;마커 정보 편집 창&lt;/span&gt;" style="rounded=1;whiteSpace=wrap;html=1;absoluteArcSize=1;arcSize=14;strokeWidth=2;" parent="1" vertex="1">
          <mxGeometry x="49" y="880" width="132" height="30" as="geometry" />
        </mxCell>
        <mxCell id="LmYOKkJwpbg0egYobLyk-175" style="edgeStyle=orthogonalEdgeStyle;rounded=0;orthogonalLoop=1;jettySize=auto;html=1;exitX=0.5;exitY=0;exitDx=0;exitDy=0;" parent="1" source="LmYOKkJwpbg0egYobLyk-170" target="LmYOKkJwpbg0egYobLyk-171" edge="1">
          <mxGeometry relative="1" as="geometry" />
        </mxCell>
        <mxCell id="LmYOKkJwpbg0egYobLyk-170" value="&lt;font style=&quot;font-size: 14px;&quot;&gt;마커 정보 입력&lt;/font&gt;" style="rounded=1;whiteSpace=wrap;html=1;absoluteArcSize=1;arcSize=14;strokeWidth=2;" parent="1" vertex="1">
          <mxGeometry x="60" y="830" width="110" height="30" as="geometry" />
        </mxCell>
        <mxCell id="LmYOKkJwpbg0egYobLyk-176" style="edgeStyle=orthogonalEdgeStyle;rounded=0;orthogonalLoop=1;jettySize=auto;html=1;exitX=0.5;exitY=0;exitDx=0;exitDy=0;" parent="1" source="LmYOKkJwpbg0egYobLyk-171" target="LmYOKkJwpbg0egYobLyk-172" edge="1">
          <mxGeometry relative="1" as="geometry" />
        </mxCell>
        <mxCell id="LmYOKkJwpbg0egYobLyk-171" value="&lt;span style=&quot;font-size: 14px;&quot;&gt;변경된 정보 DB에 저장&lt;/span&gt;" style="rounded=1;whiteSpace=wrap;html=1;absoluteArcSize=1;arcSize=14;strokeWidth=2;" parent="1" vertex="1">
          <mxGeometry x="37.5" y="780" width="155" height="30" as="geometry" />
        </mxCell>
        <mxCell id="LmYOKkJwpbg0egYobLyk-172" value="&lt;span style=&quot;font-size: 14px;&quot;&gt;변경된 마커 지도에 표시&lt;/span&gt;" style="rounded=1;whiteSpace=wrap;html=1;absoluteArcSize=1;arcSize=14;strokeWidth=2;" parent="1" vertex="1">
          <mxGeometry x="30" y="730" width="170" height="30" as="geometry" />
        </mxCell>
        <mxCell id="LmYOKkJwpbg0egYobLyk-183" style="edgeStyle=orthogonalEdgeStyle;rounded=0;orthogonalLoop=1;jettySize=auto;html=1;exitX=0.5;exitY=1;exitDx=0;exitDy=0;" parent="1" source="LmYOKkJwpbg0egYobLyk-177" target="LmYOKkJwpbg0egYobLyk-182" edge="1">
          <mxGeometry relative="1" as="geometry" />
        </mxCell>
        <mxCell id="LmYOKkJwpbg0egYobLyk-239" style="edgeStyle=orthogonalEdgeStyle;rounded=0;orthogonalLoop=1;jettySize=auto;html=1;exitX=0.5;exitY=0;exitDx=0;exitDy=0;" parent="1" source="LmYOKkJwpbg0egYobLyk-177" target="LmYOKkJwpbg0egYobLyk-238" edge="1">
          <mxGeometry relative="1" as="geometry" />
        </mxCell>
        <mxCell id="LmYOKkJwpbg0egYobLyk-177" value="&lt;span style=&quot;font-size: 14px;&quot;&gt;일정 화면&lt;/span&gt;" style="rounded=1;whiteSpace=wrap;html=1;absoluteArcSize=1;arcSize=14;strokeWidth=2;" parent="1" vertex="1">
          <mxGeometry x="720" y="590" width="91" height="30" as="geometry" />
        </mxCell>
        <mxCell id="LmYOKkJwpbg0egYobLyk-245" style="edgeStyle=orthogonalEdgeStyle;rounded=0;orthogonalLoop=1;jettySize=auto;html=1;exitX=0.5;exitY=1;exitDx=0;exitDy=0;exitPerimeter=0;" parent="1" source="LmYOKkJwpbg0egYobLyk-178" target="LmYOKkJwpbg0egYobLyk-230" edge="1">
          <mxGeometry relative="1" as="geometry" />
        </mxCell>
        <mxCell id="LmYOKkJwpbg0egYobLyk-178" value="" style="strokeWidth=2;html=1;shape=mxgraph.flowchart.decision;whiteSpace=wrap;" parent="1" vertex="1">
          <mxGeometry x="543" y="585" width="40" height="40" as="geometry" />
        </mxCell>
        <mxCell id="LmYOKkJwpbg0egYobLyk-180" value="" style="endArrow=classic;html=1;rounded=0;" parent="1" source="LmYOKkJwpbg0egYobLyk-178" target="LmYOKkJwpbg0egYobLyk-177" edge="1">
          <mxGeometry relative="1" as="geometry">
            <mxPoint x="500" y="620" as="sourcePoint" />
            <mxPoint x="600" y="620" as="targetPoint" />
          </mxGeometry>
        </mxCell>
        <mxCell id="LmYOKkJwpbg0egYobLyk-181" value="일정 화면으로" style="edgeLabel;resizable=0;html=1;;align=center;verticalAlign=middle;" parent="LmYOKkJwpbg0egYobLyk-180" connectable="0" vertex="1">
          <mxGeometry relative="1" as="geometry" />
        </mxCell>
        <mxCell id="LmYOKkJwpbg0egYobLyk-187" style="edgeStyle=orthogonalEdgeStyle;rounded=0;orthogonalLoop=1;jettySize=auto;html=1;exitX=0.5;exitY=1;exitDx=0;exitDy=0;exitPerimeter=0;" parent="1" source="LmYOKkJwpbg0egYobLyk-182" target="LmYOKkJwpbg0egYobLyk-186" edge="1">
          <mxGeometry relative="1" as="geometry" />
        </mxCell>
        <mxCell id="LmYOKkJwpbg0egYobLyk-182" value="" style="strokeWidth=2;html=1;shape=mxgraph.flowchart.decision;whiteSpace=wrap;" parent="1" vertex="1">
          <mxGeometry x="745.5" y="660" width="40" height="40" as="geometry" />
        </mxCell>
        <mxCell id="LmYOKkJwpbg0egYobLyk-184" value="" style="endArrow=classic;html=1;rounded=0;" parent="1" source="LmYOKkJwpbg0egYobLyk-182" target="LmYOKkJwpbg0egYobLyk-190" edge="1">
          <mxGeometry relative="1" as="geometry">
            <mxPoint x="660" y="780" as="sourcePoint" />
            <mxPoint x="870" y="660" as="targetPoint" />
          </mxGeometry>
        </mxCell>
        <mxCell id="LmYOKkJwpbg0egYobLyk-185" value="일정 추가" style="edgeLabel;resizable=0;html=1;;align=center;verticalAlign=middle;" parent="LmYOKkJwpbg0egYobLyk-184" connectable="0" vertex="1">
          <mxGeometry relative="1" as="geometry">
            <mxPoint x="-4" as="offset" />
          </mxGeometry>
        </mxCell>
        <mxCell id="LmYOKkJwpbg0egYobLyk-186" value="" style="strokeWidth=2;html=1;shape=mxgraph.flowchart.decision;whiteSpace=wrap;" parent="1" vertex="1">
          <mxGeometry x="745.5" y="740" width="40" height="40" as="geometry" />
        </mxCell>
        <mxCell id="LmYOKkJwpbg0egYobLyk-188" value="" style="endArrow=classic;html=1;rounded=0;" parent="1" source="LmYOKkJwpbg0egYobLyk-186" target="LmYOKkJwpbg0egYobLyk-198" edge="1">
          <mxGeometry relative="1" as="geometry">
            <mxPoint x="750" y="690" as="sourcePoint" />
            <mxPoint x="860" y="720" as="targetPoint" />
          </mxGeometry>
        </mxCell>
        <mxCell id="LmYOKkJwpbg0egYobLyk-189" value="일정 편집" style="edgeLabel;resizable=0;html=1;;align=center;verticalAlign=middle;" parent="LmYOKkJwpbg0egYobLyk-188" connectable="0" vertex="1">
          <mxGeometry relative="1" as="geometry">
            <mxPoint x="-4" as="offset" />
          </mxGeometry>
        </mxCell>
        <mxCell id="LmYOKkJwpbg0egYobLyk-193" style="edgeStyle=orthogonalEdgeStyle;rounded=0;orthogonalLoop=1;jettySize=auto;html=1;exitX=0.5;exitY=0;exitDx=0;exitDy=0;" parent="1" source="LmYOKkJwpbg0egYobLyk-190" target="LmYOKkJwpbg0egYobLyk-192" edge="1">
          <mxGeometry relative="1" as="geometry" />
        </mxCell>
        <mxCell id="LmYOKkJwpbg0egYobLyk-190" value="&lt;span style=&quot;font-size: 14px;&quot;&gt;일정 추가 창&lt;/span&gt;" style="rounded=1;whiteSpace=wrap;html=1;absoluteArcSize=1;arcSize=14;strokeWidth=2;" parent="1" vertex="1">
          <mxGeometry x="859" y="665" width="102" height="30" as="geometry" />
        </mxCell>
        <mxCell id="LmYOKkJwpbg0egYobLyk-195" style="edgeStyle=orthogonalEdgeStyle;rounded=0;orthogonalLoop=1;jettySize=auto;html=1;exitX=0.5;exitY=0;exitDx=0;exitDy=0;" parent="1" source="LmYOKkJwpbg0egYobLyk-192" target="LmYOKkJwpbg0egYobLyk-194" edge="1">
          <mxGeometry relative="1" as="geometry" />
        </mxCell>
        <mxCell id="LmYOKkJwpbg0egYobLyk-192" value="&lt;font style=&quot;font-size: 14px;&quot;&gt;일정 정보 입력&lt;/font&gt;" style="rounded=1;whiteSpace=wrap;html=1;absoluteArcSize=1;arcSize=14;strokeWidth=2;" parent="1" vertex="1">
          <mxGeometry x="855" y="615" width="110" height="30" as="geometry" />
        </mxCell>
        <mxCell id="LmYOKkJwpbg0egYobLyk-194" value="&lt;span style=&quot;font-size: 14px;&quot;&gt;입력 정보 DB에 저장&lt;/span&gt;" style="rounded=1;whiteSpace=wrap;html=1;absoluteArcSize=1;arcSize=14;strokeWidth=2;" parent="1" vertex="1">
          <mxGeometry x="840" y="570" width="140" height="30" as="geometry" />
        </mxCell>
        <mxCell id="LmYOKkJwpbg0egYobLyk-202" style="edgeStyle=orthogonalEdgeStyle;rounded=0;orthogonalLoop=1;jettySize=auto;html=1;exitX=0.5;exitY=1;exitDx=0;exitDy=0;" parent="1" source="LmYOKkJwpbg0egYobLyk-198" target="LmYOKkJwpbg0egYobLyk-200" edge="1">
          <mxGeometry relative="1" as="geometry" />
        </mxCell>
        <mxCell id="LmYOKkJwpbg0egYobLyk-198" value="&lt;span style=&quot;font-size: 14px;&quot;&gt;일정 편집 창&lt;/span&gt;" style="rounded=1;whiteSpace=wrap;html=1;absoluteArcSize=1;arcSize=14;strokeWidth=2;" parent="1" vertex="1">
          <mxGeometry x="852.5" y="745" width="110" height="30" as="geometry" />
        </mxCell>
        <mxCell id="LmYOKkJwpbg0egYobLyk-203" style="edgeStyle=orthogonalEdgeStyle;rounded=0;orthogonalLoop=1;jettySize=auto;html=1;exitX=0.5;exitY=1;exitDx=0;exitDy=0;" parent="1" source="LmYOKkJwpbg0egYobLyk-200" target="LmYOKkJwpbg0egYobLyk-201" edge="1">
          <mxGeometry relative="1" as="geometry" />
        </mxCell>
        <mxCell id="LmYOKkJwpbg0egYobLyk-200" value="&lt;font style=&quot;font-size: 14px;&quot;&gt;일정 정보 입력&lt;/font&gt;" style="rounded=1;whiteSpace=wrap;html=1;absoluteArcSize=1;arcSize=14;strokeWidth=2;" parent="1" vertex="1">
          <mxGeometry x="852.5" y="790" width="110" height="30" as="geometry" />
        </mxCell>
        <mxCell id="LmYOKkJwpbg0egYobLyk-201" value="&lt;span style=&quot;font-size: 14px;&quot;&gt;변경된 정보 DB에 저장&lt;/span&gt;" style="rounded=1;whiteSpace=wrap;html=1;absoluteArcSize=1;arcSize=14;strokeWidth=2;" parent="1" vertex="1">
          <mxGeometry x="830" y="840" width="155" height="30" as="geometry" />
        </mxCell>
        <mxCell id="LmYOKkJwpbg0egYobLyk-217" style="edgeStyle=orthogonalEdgeStyle;rounded=0;orthogonalLoop=1;jettySize=auto;html=1;exitX=1;exitY=0.5;exitDx=0;exitDy=0;exitPerimeter=0;" parent="1" source="LmYOKkJwpbg0egYobLyk-205" target="LmYOKkJwpbg0egYobLyk-216" edge="1">
          <mxGeometry relative="1" as="geometry" />
        </mxCell>
        <mxCell id="LmYOKkJwpbg0egYobLyk-218" value="내 정보 화면으로" style="edgeLabel;html=1;align=center;verticalAlign=middle;resizable=0;points=[];" parent="LmYOKkJwpbg0egYobLyk-217" vertex="1" connectable="0">
          <mxGeometry x="-0.0112" y="1" relative="1" as="geometry">
            <mxPoint x="-2" y="2" as="offset" />
          </mxGeometry>
        </mxCell>
        <mxCell id="LmYOKkJwpbg0egYobLyk-247" style="edgeStyle=orthogonalEdgeStyle;rounded=0;orthogonalLoop=1;jettySize=auto;html=1;exitX=0.5;exitY=1;exitDx=0;exitDy=0;exitPerimeter=0;" parent="1" source="LmYOKkJwpbg0egYobLyk-205" target="LmYOKkJwpbg0egYobLyk-138" edge="1">
          <mxGeometry relative="1" as="geometry" />
        </mxCell>
        <mxCell id="LmYOKkJwpbg0egYobLyk-248" value="앱 종료" style="edgeLabel;html=1;align=center;verticalAlign=middle;resizable=0;points=[];" parent="LmYOKkJwpbg0egYobLyk-247" vertex="1" connectable="0">
          <mxGeometry x="-0.057" y="2" relative="1" as="geometry">
            <mxPoint as="offset" />
          </mxGeometry>
        </mxCell>
        <mxCell id="LmYOKkJwpbg0egYobLyk-205" value="" style="strokeWidth=2;html=1;shape=mxgraph.flowchart.decision;whiteSpace=wrap;" parent="1" vertex="1">
          <mxGeometry x="543" y="1070" width="40" height="40" as="geometry" />
        </mxCell>
        <mxCell id="LmYOKkJwpbg0egYobLyk-267" style="edgeStyle=orthogonalEdgeStyle;rounded=0;orthogonalLoop=1;jettySize=auto;html=1;exitX=0.5;exitY=1;exitDx=0;exitDy=0;" parent="1" source="LmYOKkJwpbg0egYobLyk-216" target="LmYOKkJwpbg0egYobLyk-263" edge="1">
          <mxGeometry relative="1" as="geometry" />
        </mxCell>
        <mxCell id="LmYOKkJwpbg0egYobLyk-216" value="&lt;span style=&quot;font-size: 14px;&quot;&gt;내 정보 화면&lt;/span&gt;" style="rounded=1;whiteSpace=wrap;html=1;absoluteArcSize=1;arcSize=14;strokeWidth=2;" parent="1" vertex="1">
          <mxGeometry x="715.5" y="1075" width="100" height="30" as="geometry" />
        </mxCell>
        <mxCell id="LmYOKkJwpbg0egYobLyk-222" style="edgeStyle=orthogonalEdgeStyle;rounded=0;orthogonalLoop=1;jettySize=auto;html=1;exitX=0.5;exitY=1;exitDx=0;exitDy=0;exitPerimeter=0;" parent="1" source="LmYOKkJwpbg0egYobLyk-219" target="LmYOKkJwpbg0egYobLyk-221" edge="1">
          <mxGeometry relative="1" as="geometry" />
        </mxCell>
        <mxCell id="LmYOKkJwpbg0egYobLyk-226" style="edgeStyle=orthogonalEdgeStyle;rounded=0;orthogonalLoop=1;jettySize=auto;html=1;exitX=1;exitY=0.5;exitDx=0;exitDy=0;exitPerimeter=0;entryX=0.5;entryY=0;entryDx=0;entryDy=0;" parent="1" source="LmYOKkJwpbg0egYobLyk-219" target="LmYOKkJwpbg0egYobLyk-80" edge="1">
          <mxGeometry relative="1" as="geometry">
            <mxPoint x="840" y="950" as="targetPoint" />
            <Array as="points">
              <mxPoint x="1070" y="1205" />
              <mxPoint x="1070" y="290" />
              <mxPoint x="575" y="290" />
            </Array>
          </mxGeometry>
        </mxCell>
        <mxCell id="LmYOKkJwpbg0egYobLyk-229" value="로그 아웃" style="edgeLabel;html=1;align=center;verticalAlign=middle;resizable=0;points=[];" parent="LmYOKkJwpbg0egYobLyk-226" vertex="1" connectable="0">
          <mxGeometry x="-0.8318" y="-2" relative="1" as="geometry">
            <mxPoint y="-1" as="offset" />
          </mxGeometry>
        </mxCell>
        <mxCell id="LmYOKkJwpbg0egYobLyk-219" value="" style="strokeWidth=2;html=1;shape=mxgraph.flowchart.decision;whiteSpace=wrap;" parent="1" vertex="1">
          <mxGeometry x="745.5" y="1185" width="40" height="40" as="geometry" />
        </mxCell>
        <mxCell id="LmYOKkJwpbg0egYobLyk-250" style="edgeStyle=orthogonalEdgeStyle;rounded=0;orthogonalLoop=1;jettySize=auto;html=1;exitX=1;exitY=0.5;exitDx=0;exitDy=0;exitPerimeter=0;" parent="1" source="LmYOKkJwpbg0egYobLyk-221" target="LmYOKkJwpbg0egYobLyk-249" edge="1">
          <mxGeometry relative="1" as="geometry" />
        </mxCell>
        <mxCell id="LmYOKkJwpbg0egYobLyk-251" value="회원 탈퇴" style="edgeLabel;html=1;align=center;verticalAlign=middle;resizable=0;points=[];" parent="LmYOKkJwpbg0egYobLyk-250" vertex="1" connectable="0">
          <mxGeometry x="-0.095" y="-1" relative="1" as="geometry">
            <mxPoint as="offset" />
          </mxGeometry>
        </mxCell>
        <mxCell id="LmYOKkJwpbg0egYobLyk-221" value="" style="strokeWidth=2;html=1;shape=mxgraph.flowchart.decision;whiteSpace=wrap;" parent="1" vertex="1">
          <mxGeometry x="745.5" y="1240" width="40" height="40" as="geometry" />
        </mxCell>
        <mxCell id="LmYOKkJwpbg0egYobLyk-243" style="edgeStyle=orthogonalEdgeStyle;rounded=0;orthogonalLoop=1;jettySize=auto;html=1;exitX=1;exitY=0.5;exitDx=0;exitDy=0;exitPerimeter=0;" parent="1" source="LmYOKkJwpbg0egYobLyk-230" target="LmYOKkJwpbg0egYobLyk-231" edge="1">
          <mxGeometry relative="1" as="geometry" />
        </mxCell>
        <mxCell id="LmYOKkJwpbg0egYobLyk-244" value="여행지 추천 화면으로" style="edgeLabel;html=1;align=center;verticalAlign=middle;resizable=0;points=[];" parent="LmYOKkJwpbg0egYobLyk-243" vertex="1" connectable="0">
          <mxGeometry x="-0.076" y="1" relative="1" as="geometry">
            <mxPoint as="offset" />
          </mxGeometry>
        </mxCell>
        <mxCell id="LmYOKkJwpbg0egYobLyk-246" style="edgeStyle=orthogonalEdgeStyle;rounded=0;orthogonalLoop=1;jettySize=auto;html=1;exitX=0.5;exitY=1;exitDx=0;exitDy=0;exitPerimeter=0;" parent="1" source="LmYOKkJwpbg0egYobLyk-230" target="LmYOKkJwpbg0egYobLyk-205" edge="1">
          <mxGeometry relative="1" as="geometry" />
        </mxCell>
        <mxCell id="LmYOKkJwpbg0egYobLyk-230" value="" style="strokeWidth=2;html=1;shape=mxgraph.flowchart.decision;whiteSpace=wrap;" parent="1" vertex="1">
          <mxGeometry x="543" y="910" width="40" height="40" as="geometry" />
        </mxCell>
        <mxCell id="LmYOKkJwpbg0egYobLyk-256" style="edgeStyle=orthogonalEdgeStyle;rounded=0;orthogonalLoop=1;jettySize=auto;html=1;exitX=0.5;exitY=1;exitDx=0;exitDy=0;" parent="1" source="LmYOKkJwpbg0egYobLyk-231" target="LmYOKkJwpbg0egYobLyk-253" edge="1">
          <mxGeometry relative="1" as="geometry" />
        </mxCell>
        <mxCell id="LmYOKkJwpbg0egYobLyk-231" value="&lt;span style=&quot;font-size: 14px;&quot;&gt;여행지 추천 화면&lt;/span&gt;" style="rounded=1;whiteSpace=wrap;html=1;absoluteArcSize=1;arcSize=14;strokeWidth=2;" parent="1" vertex="1">
          <mxGeometry x="720" y="915" width="130" height="30" as="geometry" />
        </mxCell>
        <mxCell id="LmYOKkJwpbg0egYobLyk-240" style="edgeStyle=orthogonalEdgeStyle;rounded=0;orthogonalLoop=1;jettySize=auto;html=1;exitX=0;exitY=0.5;exitDx=0;exitDy=0;exitPerimeter=0;entryX=1;entryY=0.5;entryDx=0;entryDy=0;" parent="1" source="LmYOKkJwpbg0egYobLyk-238" target="LmYOKkJwpbg0egYobLyk-157" edge="1">
          <mxGeometry relative="1" as="geometry" />
        </mxCell>
        <mxCell id="LmYOKkJwpbg0egYobLyk-241" value="다른 화면으로" style="edgeLabel;html=1;align=center;verticalAlign=middle;resizable=0;points=[];" parent="LmYOKkJwpbg0egYobLyk-240" vertex="1" connectable="0">
          <mxGeometry x="0.1009" y="1" relative="1" as="geometry">
            <mxPoint x="10" as="offset" />
          </mxGeometry>
        </mxCell>
        <mxCell id="LmYOKkJwpbg0egYobLyk-238" value="" style="strokeWidth=2;html=1;shape=mxgraph.flowchart.decision;whiteSpace=wrap;" parent="1" vertex="1">
          <mxGeometry x="745.5" y="520" width="40" height="40" as="geometry" />
        </mxCell>
        <mxCell id="LmYOKkJwpbg0egYobLyk-252" style="edgeStyle=orthogonalEdgeStyle;rounded=0;orthogonalLoop=1;jettySize=auto;html=1;exitX=1;exitY=0.5;exitDx=0;exitDy=0;entryX=0.5;entryY=0;entryDx=0;entryDy=0;" parent="1" source="LmYOKkJwpbg0egYobLyk-249" target="LmYOKkJwpbg0egYobLyk-80" edge="1">
          <mxGeometry relative="1" as="geometry">
            <Array as="points">
              <mxPoint x="1070" y="1260" />
              <mxPoint x="1070" y="290" />
              <mxPoint x="575" y="290" />
            </Array>
          </mxGeometry>
        </mxCell>
        <mxCell id="LmYOKkJwpbg0egYobLyk-249" value="&lt;font style=&quot;font-size: 14px;&quot;&gt;DB에서 회원 정보 삭제&lt;/font&gt;" style="rounded=1;whiteSpace=wrap;html=1;absoluteArcSize=1;arcSize=14;strokeWidth=2;" parent="1" vertex="1">
          <mxGeometry x="900" y="1245" width="160" height="30" as="geometry" />
        </mxCell>
        <mxCell id="LmYOKkJwpbg0egYobLyk-257" style="edgeStyle=orthogonalEdgeStyle;rounded=0;orthogonalLoop=1;jettySize=auto;html=1;exitX=1;exitY=0.5;exitDx=0;exitDy=0;exitPerimeter=0;" parent="1" source="LmYOKkJwpbg0egYobLyk-253" target="LmYOKkJwpbg0egYobLyk-255" edge="1">
          <mxGeometry relative="1" as="geometry" />
        </mxCell>
        <mxCell id="LmYOKkJwpbg0egYobLyk-258" value="대화 입력" style="edgeLabel;html=1;align=center;verticalAlign=middle;resizable=0;points=[];" parent="LmYOKkJwpbg0egYobLyk-257" vertex="1" connectable="0">
          <mxGeometry x="-0.051" y="-2" relative="1" as="geometry">
            <mxPoint y="-1" as="offset" />
          </mxGeometry>
        </mxCell>
        <mxCell id="LmYOKkJwpbg0egYobLyk-253" value="" style="strokeWidth=2;html=1;shape=mxgraph.flowchart.decision;whiteSpace=wrap;" parent="1" vertex="1">
          <mxGeometry x="765" y="960" width="40" height="40" as="geometry" />
        </mxCell>
        <mxCell id="LmYOKkJwpbg0egYobLyk-260" style="edgeStyle=orthogonalEdgeStyle;rounded=0;orthogonalLoop=1;jettySize=auto;html=1;exitX=1;exitY=0.5;exitDx=0;exitDy=0;exitPerimeter=0;entryX=1;entryY=0.5;entryDx=0;entryDy=0;entryPerimeter=0;" parent="1" source="LmYOKkJwpbg0egYobLyk-254" target="LmYOKkJwpbg0egYobLyk-238" edge="1">
          <mxGeometry relative="1" as="geometry">
            <mxPoint x="790" y="540" as="targetPoint" />
            <Array as="points">
              <mxPoint x="1020" y="1035" />
              <mxPoint x="1020" y="540" />
            </Array>
          </mxGeometry>
        </mxCell>
        <mxCell id="LmYOKkJwpbg0egYobLyk-262" value="다른 화면으로" style="edgeLabel;html=1;align=center;verticalAlign=middle;resizable=0;points=[];" parent="LmYOKkJwpbg0egYobLyk-260" vertex="1" connectable="0">
          <mxGeometry x="-0.8005" y="1" relative="1" as="geometry">
            <mxPoint x="1" y="2" as="offset" />
          </mxGeometry>
        </mxCell>
        <mxCell id="LmYOKkJwpbg0egYobLyk-254" value="" style="strokeWidth=2;html=1;shape=mxgraph.flowchart.decision;whiteSpace=wrap;" parent="1" vertex="1">
          <mxGeometry x="765" y="1015" width="40" height="40" as="geometry" />
        </mxCell>
        <mxCell id="LmYOKkJwpbg0egYobLyk-255" value="&lt;span style=&quot;font-size: 14px;&quot;&gt;답변&lt;/span&gt;" style="rounded=1;whiteSpace=wrap;html=1;absoluteArcSize=1;arcSize=14;strokeWidth=2;" parent="1" vertex="1">
          <mxGeometry x="890" y="965" width="60" height="30" as="geometry" />
        </mxCell>
        <mxCell id="LmYOKkJwpbg0egYobLyk-259" style="edgeStyle=orthogonalEdgeStyle;rounded=0;orthogonalLoop=1;jettySize=auto;html=1;exitX=0.5;exitY=1;exitDx=0;exitDy=0;exitPerimeter=0;entryX=0.5;entryY=0;entryDx=0;entryDy=0;entryPerimeter=0;" parent="1" source="LmYOKkJwpbg0egYobLyk-253" target="LmYOKkJwpbg0egYobLyk-254" edge="1">
          <mxGeometry relative="1" as="geometry" />
        </mxCell>
        <mxCell id="LmYOKkJwpbg0egYobLyk-263" value="" style="strokeWidth=2;html=1;shape=mxgraph.flowchart.decision;whiteSpace=wrap;" parent="1" vertex="1">
          <mxGeometry x="745.5" y="1130" width="40" height="40" as="geometry" />
        </mxCell>
        <mxCell id="LmYOKkJwpbg0egYobLyk-264" style="edgeStyle=orthogonalEdgeStyle;rounded=0;orthogonalLoop=1;jettySize=auto;html=1;exitX=1;exitY=0.5;exitDx=0;exitDy=0;exitPerimeter=0;entryX=1;entryY=0.5;entryDx=0;entryDy=0;entryPerimeter=0;" parent="1" source="LmYOKkJwpbg0egYobLyk-263" target="LmYOKkJwpbg0egYobLyk-238" edge="1">
          <mxGeometry relative="1" as="geometry">
            <Array as="points">
              <mxPoint x="1020" y="1150" />
              <mxPoint x="1020" y="540" />
            </Array>
          </mxGeometry>
        </mxCell>
        <mxCell id="LmYOKkJwpbg0egYobLyk-266" value="다른 화면으로" style="edgeLabel;html=1;align=center;verticalAlign=middle;resizable=0;points=[];" parent="LmYOKkJwpbg0egYobLyk-264" vertex="1" connectable="0">
          <mxGeometry x="-0.7936" y="-1" relative="1" as="geometry">
            <mxPoint as="offset" />
          </mxGeometry>
        </mxCell>
        <mxCell id="LmYOKkJwpbg0egYobLyk-270" style="edgeStyle=orthogonalEdgeStyle;rounded=0;orthogonalLoop=1;jettySize=auto;html=1;exitX=0.5;exitY=1;exitDx=0;exitDy=0;exitPerimeter=0;entryX=0.5;entryY=0;entryDx=0;entryDy=0;entryPerimeter=0;" parent="1" source="LmYOKkJwpbg0egYobLyk-263" target="LmYOKkJwpbg0egYobLyk-219" edge="1">
          <mxGeometry relative="1" as="geometry" />
        </mxCell>
      </root>
    </mxGraphModel>
  </diagram>
</mxfile>
